<svg xmlns="http://www.w3.org/2000/svg" width="26" height="26" viewBox="0 0 26 26" fill="none">
    <path d="M21.8668 19.2292C22.3156 19.2292 22.6793 18.8654 22.6793 18.4167C22.6793 17.9679 22.3156 17.6042 21.8668 17.6042V19.2292ZM14.6035 23.035C14.4617 23.4608 14.6919 23.9208 15.1177 24.0626C15.5434 24.2043 16.0035 23.9741 16.1453 23.5483L14.6035 23.035ZM4.33091 17.6042C3.88218 17.6042 3.51841 17.9679 3.51841 18.4167C3.51841 18.8654 3.88218 19.2292 4.33091 19.2292V17.6042ZM10.0525 23.5483C10.1943 23.9741 10.6543 24.2043 11.0801 24.0626C11.5058 23.9208 11.736 23.4608 11.5943 23.035L10.0525 23.5483ZM6.01908 5.91437C5.90306 5.48088 5.45761 5.22354 5.02414 5.33955C4.59066 5.45557 4.33331 5.90101 4.44932 6.3345L6.01908 5.91437ZM1.76309 12.9869C1.38875 13.2343 1.28588 13.7384 1.53332 14.1127C1.78078 14.4871 2.28483 14.5899 2.65917 14.3425L1.76309 12.9869ZM21.5952 6.33459C21.7113 5.90112 21.4539 5.45566 21.0204 5.33965C20.587 5.22364 20.1415 5.48099 20.0255 5.91447L21.5952 6.33459ZM23.3853 14.3426C23.7597 14.59 24.2638 14.4872 24.5113 14.1128C24.7587 13.7385 24.6558 13.2344 24.2815 12.987L23.3853 14.3426ZM17.4312 4.15591C17.7979 3.89729 17.8855 3.39035 17.6269 3.02366C17.3683 2.65695 16.8613 2.56934 16.4946 2.82797L17.4312 4.15591ZM9.33342 2.5963C8.97239 2.3298 8.46368 2.40644 8.19719 2.76747C7.93069 3.12849 8.00732 3.6372 8.36835 3.90369L9.33342 2.5963ZM22.9959 13C22.9959 18.5353 18.5141 23.0208 12.9876 23.0208V24.6458C19.4134 24.6458 24.6209 19.4309 24.6209 13H22.9959ZM12.9876 23.0208C7.46101 23.0208 2.97925 18.5353 2.97925 13H1.35425C1.35425 19.4309 6.56178 24.6458 12.9876 24.6458V23.0208ZM2.97925 13C2.97925 7.46476 7.46101 2.97916 12.9876 2.97916V1.35416C6.56178 1.35416 1.35425 6.56907 1.35425 13H2.97925ZM12.9876 2.97916C18.5141 2.97916 22.9959 7.46476 22.9959 13H24.6209C24.6209 6.56907 19.4134 1.35416 12.9876 1.35416V2.97916ZM13.1509 10.8978L15.1404 12.4194L16.1277 11.1286L14.138 9.60702L13.1509 10.8978ZM15.2346 12.7151L14.4532 15.2468L16.0059 15.7261L16.7873 13.1943L15.2346 12.7151ZM14.1956 15.4375H11.7795V17.0625H14.1956V15.4375ZM11.522 15.2468L10.7405 12.7151L9.18781 13.1943L9.96926 15.7261L11.522 15.2468ZM10.8347 12.4194L12.8243 10.8978L11.8371 9.60702L9.84753 11.1286L10.8347 12.4194ZM21.8668 17.6042H20.1171V19.2292H21.8668V17.6042ZM15.2401 21.123L14.6035 23.035L16.1453 23.5483L16.7819 21.6363L15.2401 21.123ZM20.1171 17.6042C19.3831 17.6042 18.7642 17.603 18.2602 17.6605C17.7354 17.7205 17.2537 17.8513 16.8164 18.1667L17.7674 19.4845C17.8969 19.391 18.0751 19.3172 18.4447 19.275C18.8352 19.2304 19.3456 19.2292 20.1171 19.2292V17.6042ZM16.7819 21.6363C17.0259 20.9036 17.1885 20.4191 17.3543 20.0621C17.5114 19.7241 17.6377 19.578 17.7674 19.4845L16.8164 18.1667C16.3793 18.4822 16.1033 18.8981 15.8807 19.3774C15.6667 19.8377 15.4722 20.4257 15.2401 21.123L16.7819 21.6363ZM4.33091 19.2292H6.0806V17.6042H4.33091V19.2292ZM9.41592 21.6363L10.0525 23.5483L11.5943 23.035L10.9577 21.123L9.41592 21.6363ZM6.0806 19.2292C6.85216 19.2292 7.36253 19.2304 7.75304 19.275C8.12274 19.3172 8.30088 19.391 8.43042 19.4845L9.38129 18.1667C8.94406 17.8513 8.4624 17.7205 7.93758 17.6605C7.43357 17.603 6.81469 17.6042 6.0806 17.6042V19.2292ZM10.9577 21.123C10.7255 20.4257 10.5311 19.8377 10.3172 19.3774C10.0945 18.8982 9.81845 18.4822 9.38129 18.1667L8.43042 19.4845C8.56002 19.578 8.68641 19.7241 8.84348 20.0621C9.00934 20.4191 9.17195 20.9036 9.41592 21.6363L10.9577 21.123ZM4.44932 6.3345L4.90218 8.02651L6.47193 7.60638L6.01908 5.91437L4.44932 6.3345ZM3.44303 11.8764L1.76309 12.9869L2.65917 14.3425L4.33911 13.232L3.44303 11.8764ZM4.90218 8.02651C5.10186 8.77258 5.23281 9.26662 5.29084 9.65601C5.34581 10.0248 5.32076 10.2166 5.26395 10.3664L6.78344 10.9424C6.97453 10.4384 6.97601 9.9392 6.8981 9.41645C6.82325 8.91434 6.66194 8.31635 6.47193 7.60638L4.90218 8.02651ZM4.33911 13.232C4.95175 12.8271 5.46882 12.4867 5.85766 12.1606C6.26255 11.8212 6.59234 11.4466 6.78344 10.9424L5.26395 10.3664C5.20717 10.5162 5.09889 10.6762 4.81356 10.9156C4.51218 11.1682 4.08689 11.4508 3.44303 11.8764L4.33911 13.232ZM20.0255 5.91447L19.5727 7.60648L21.1424 8.02661L21.5952 6.33459L20.0255 5.91447ZM21.7054 13.2322L23.3853 14.3426L24.2815 12.987L22.6016 11.8765L21.7054 13.2322ZM19.5727 7.60648C19.3826 8.31644 19.2213 8.91443 19.1465 9.41655C19.0686 9.9393 19.07 10.4385 19.2611 10.9425L20.7806 10.3665C20.7238 10.2167 20.6988 10.0249 20.7537 9.6561C20.8118 9.26672 20.9426 8.77269 21.1424 8.02661L19.5727 7.60648ZM22.6016 11.8765C21.9576 11.4509 21.5324 11.1683 21.231 10.9156C20.9457 10.6763 20.8373 10.5163 20.7806 10.3665L19.2611 10.9425C19.4522 11.4467 19.782 11.8213 20.1869 12.1607C20.5757 12.4868 21.0928 12.8272 21.7054 13.2322L22.6016 11.8765ZM16.4946 2.82797L15.0643 3.8368L16.0008 5.16475L17.4312 4.15591L16.4946 2.82797ZM10.9537 3.79232L9.33342 2.5963L8.36835 3.90369L9.98864 5.09972L10.9537 3.79232ZM15.0643 3.8368C14.4334 4.28166 14.0155 4.57495 13.6706 4.76364C13.3439 4.94232 13.1559 4.98468 12.9964 4.98295L12.9787 6.60786C13.5179 6.61369 13.9869 6.44281 14.4503 6.1893C14.8955 5.94582 15.4006 5.58801 16.0008 5.16475L15.0643 3.8368ZM9.98864 5.09972C10.5795 5.53587 11.0768 5.90452 11.5166 6.15757C11.9745 6.42104 12.4397 6.60203 12.9787 6.60786L12.9964 4.98295C12.8369 4.98123 12.6498 4.9348 12.3271 4.7491C11.9863 4.55299 11.5747 4.25073 10.9537 3.79232L9.98864 5.09972ZM15.1404 12.4194C15.1861 12.4543 15.2182 12.5016 15.2347 12.5547L16.7873 12.0754C16.6738 11.7076 16.4481 11.3738 16.1277 11.1286L15.1404 12.4194ZM15.2347 12.5547C15.2505 12.6061 15.2511 12.6616 15.2346 12.7151L16.7873 13.1943C16.9026 12.8211 16.8973 12.4317 16.7873 12.0754L15.2347 12.5547ZM19.71 9.90386L15.7001 11.5644L16.3218 13.0658L20.3318 11.4052L19.71 9.90386ZM14.138 9.60702C13.7986 9.34741 13.3927 9.21744 12.9876 9.21744V10.8424C13.0455 10.8424 13.1025 10.8607 13.1509 10.8978L14.138 9.60702ZM12.9876 9.21744C12.5826 9.21744 12.1765 9.34741 11.8371 9.60702L12.8243 10.8978C12.8727 10.8607 12.9297 10.8424 12.9876 10.8424V9.21744ZM13.8001 10.0299V5.79541H12.1751V10.0299H13.8001ZM14.4532 15.2468C14.4365 15.3011 14.4043 15.3465 14.362 15.3798L15.3674 16.6565C15.6624 16.4242 15.8894 16.1033 16.0059 15.7261L14.4532 15.2468ZM14.362 15.3798C14.3152 15.4167 14.2575 15.4375 14.1956 15.4375V17.0625C14.6319 17.0625 15.0417 16.9129 15.3674 16.6565L14.362 15.3798ZM17.9066 18.2942L15.4794 15.4867L14.25 16.5495L16.6773 19.357L17.9066 18.2942ZM11.7795 15.4375C11.7176 15.4375 11.6599 15.4167 11.6131 15.3798L10.6078 16.6565C10.9334 16.9129 11.3432 17.0625 11.7795 17.0625V15.4375ZM11.6131 15.3798C11.5708 15.3465 11.5387 15.3011 11.522 15.2468L9.96926 15.7261C10.0857 16.1033 10.3128 16.4242 10.6078 16.6565L11.6131 15.3798ZM9.54489 19.3274L11.7495 16.52L10.4714 15.5164L8.26682 18.3238L9.54489 19.3274ZM10.7405 12.7151C10.724 12.6616 10.7247 12.6061 10.7405 12.5547L9.18782 12.0754C9.07786 12.4317 9.07262 12.8211 9.18781 13.1943L10.7405 12.7151ZM10.7405 12.5547C10.7569 12.5016 10.7891 12.4543 10.8347 12.4194L9.84753 11.1286C9.52704 11.3738 9.30135 11.7076 9.18782 12.0754L10.7405 12.5547ZM10.2797 11.5663L6.33924 9.9057L5.70816 11.4032L9.64864 13.0638L10.2797 11.5663Z" fill="#FFFFFF"/>
</svg>