<svg xmlns="http://www.w3.org/2000/svg" width="27" height="26" viewBox="0 0 27 26" fill="none">
    <path d="M26.4999 16.64H26.3689C25.5665 20.7417 20.1289 23.92 13.4999 23.92C6.87098 23.92 1.43282 20.7417 0.630978 16.64H0.499939V11.44H0.612259C0.541343 11.0977 0.503727 10.7495 0.499939 10.4C0.499939 5.80474 6.3203 2.07998 13.4999 2.07998C20.6796 2.07998 26.4999 5.80474 26.4999 10.4C26.4961 10.7495 26.4585 11.0977 26.3876 11.44H26.4999V16.64ZM13.4999 3.63998C7.18194 3.63998 2.05994 6.66638 2.05994 10.4C2.05994 14.1336 7.18194 17.16 13.4999 17.16C19.8179 17.16 24.9399 14.1336 24.9399 10.4C24.9399 6.66638 19.8179 3.63998 13.4999 3.63998ZM13.4999 18.72C8.5563 18.72 4.2585 16.952 2.05994 14.352V16.12H2.10414C2.55498 19.6097 7.47886 22.36 13.4999 22.36C19.521 22.36 24.4449 19.6097 24.8952 16.12H24.9399V14.352C22.7414 16.952 18.4436 18.72 13.4999 18.72Z" fill="white"/>
</svg>